# AST/ASF file generated using VICON BodyLanguage
# -----------------------------------------------
:version 1.10
:name VICON
:units
  mass 1.0
  length 0.45
  angle deg
:documentation
   .ast/.asf automatically generated from VICON data using
   VICON BodyBuilder and BodyLanguage model FoxedUp or BRILLIANT.MOD
:root
   order TX TY TZ RX RY RZ
   axis XYZ
   position 0 0 0  
   orientation 0 0 0 
:bonedata
  begin
     id 1 
     name lhipjoint
     direction 0.702568 -0.596508 0.388042 
     length 2.56661 
     axis 0 0 0  XYZ
  end
  begin
     id 2 
     name lfemur
     direction 0.34202 -0.939693 0  
     length 6.58374  
     axis 0 0 20  XYZ
    dof rx ry rz
    limits (-160.0 20.0)
           (-70.0 70.0)
           (-60.0 70.0)
  end
  begin
     id 3 
     name ltibia
     direction 0.34202 -0.939693 0   
     length 6.62538   
     axis 0 0 20   XYZ
    dof rx
    limits (-10.0 170.0)
  end
  begin
     id 4 
     name lfoot
     direction 0.10455 -0.287249 0.952133   
     length 2.26699   
     axis -90 7.62852e-016 20   XYZ
    dof rx rz
    limits (-45.0 90.0)
           (-70.0 20.0)
  end
  begin
     id 5 
     name ltoes
     direction 1.53572e-011 -4.22322e-011 1   
     length 1.12949   
     axis -90 7.62852e-016 20   XYZ
    dof rx
    limits (-90.0 20.0)
  end
  begin
     id 6 
     name rhipjoint
     direction -0.728055 -0.574632 0.373811   
     length 2.66432  
     axis 0 0 0  XYZ 
  end
  begin
     id 7 
     name rfemur
     direction -0.34202 -0.939693 0   
     length 6.66732   
     axis 0 0 -20   XYZ
    dof rx ry rz
    limits (-160.0 20.0)
           (-70.0 70.0)
           (-70.0 60.0)
  end
  begin
     id 8 
     name rtibia
     direction -0.34202 -0.939693 0   
     length 6.59288   
     axis 0 0 -20   XYZ
    dof rx
    limits (-10.0 170.0)
 end
 begin
     id 9 
     name rfoot
     direction -0.119193 -0.327479 0.93731   
     length 2.38061  
     axis -90 -7.62852e-016 -20   XYZ
    dof rx rz
    limits (-45.0 90.0)
           (-20.0 70.0)
  end
  begin
     id 10 
     name rtoes
     direction -1.53547e-011 -4.21827e-011 1   
     length 1.17899   
     axis -90 -7.62852e-016 -20   XYZ
    dof rx
    limits (-90.0 20.0)
  end
  begin
     id 11 
     name lowerback
     direction -0.000416114 0.999912 -0.0132284   
     length 2.12109   
     axis 0 0 0   XYZ
    dof rx ry rz
    limits (-20.0 45.0)
           (-30.0 30.0)
           (-30.0 30.0)
  end
  begin
     id 12 
     name upperback
     direction -0.00136371 0.99809 0.0617608   
     length 2.10067   
     axis 0 0 0   XYZ
    dof rx ry rz
    limits (-20.0 45.0)
           (-30.0 30.0)
           (-30.0 30.0)
  end
  begin
     id 13 
     name thorax
     direction -3.43026e-005 0.997776 0.0666515   
     length 2.10618   
     axis 0 0 0   XYZ
    dof rx ry rz
    limits (-20.0 45.0)
           (-30.0 30.0)
           (-30.0 30.0)
  end
  begin
     id 14 
     name lowerneck
     direction 0.0398646 0.998418 0.0396592   
     length 1.83817   
     axis 0 0 0   XYZ
    dof rx ry rz
    limits (-20.0 45.0)
           (-30.0 30.0)
           (-30.0 30.0)
  end
  begin
     id 15 
     name upperneck
     direction -0.0367268 0.961527 -0.272244   
     length 1.81975   
     axis 0 0 0   XYZ
    dof rx ry rz
    limits (-20.0 45.0)
           (-30.0 30.0)
           (-30.0 30.0)
  end
  begin
     id 16
     name head
     direction -0.0182665 0.99536 -0.0944669  
     length 1.86026  
     axis 0 0 0   XYZ
    dof rx ry rz
    limits (-20.0 45.0)
           (-30.0 30.0)
           (-30.0 30.0)
  end
  begin
     id 17 
     name lclavicle
     direction 0.924239 0.361045 0.124212  
     length 3.26878  
     axis 0 0 0   XYZ
    dof ry rz
    limits (-20.0 10.0)
           (0.0 20.0)
  end
  begin
     id 18 
     name lhumerus
     direction 1 -4.48968e-011 -2.56583e-027   
     length 4.58538   
     axis 180 -30 -90   XYZ
    dof rx ry rz
    limits (-60.0 90.0)
           (-90.0 90.0)
           (-90.0 90.0)
  end
  begin
     id 19
     name lradius
     direction 1 -4.4898e-011 -5.50375e-027   
     length 2.68935   
     axis 180 -30 -90   XYZ
    dof rx
    limits (-10.0 170.0)
  end
  begin
     id 20
     name lwrist
     direction 1 -4.48939e-011 -1.48955e-026   
     length 1.34468   
     axis 9.0955e-015 90 90   XYZ
    dof ry
    limits (-180.0 0.0)
 end
  begin
     id 21 
     name lhand
     direction 1 -4.48936e-011 -2.97907e-026   
     length 0.585058   
     axis 1.90115e-014 90 90   XYZ
    dof rx rz
    limits (-90.0 90.0)
           (-45.0 45.0)
  end
  begin
     id 22 
     name lfingers
     direction 1 -4.49082e-011 -5.96235e-026   
     length 0.471689   
     axis 3.80223e-014 90 90   XYZ
    dof rx
    limits (0.0 90.0)
  end
  begin
     id 23
     name lthumb
     direction 0.707107 -6.3489e-011 0.707107   
     length 0.677253   
     axis -90 45 -3.84942e-014   XYZ
    dof rx rz
    limits (-45.0 45.0)
           (-45.0 45.0)
  end
  begin
     id 24 
     name rclavicle
     direction -0.923098 0.371783 0.0983239   
     length 3.19656  
     axis 0 0 0   XYZ 
    dof ry rz
    limits (-10.0 20.0)
           (-20.0 0.0)
  end
  begin
     id 25 
     name rhumerus
     direction -1 -4.48976e-011 -2.5492e-027  
     length 4.4745   
     axis 180 30 90   XYZ
    dof rx ry rz
    limits (-90.0 60.0)
           (-90.0 90.0)
           (-90.0 90.0)
  end
  begin
     id 26 
     name rradius
     direction -1 -4.48941e-011 -4.36555e-027   
     length 2.93896   
     axis 180 30 90   XYZ
    dof rx
    limits (-10.0 170.0)
  end
  begin
     id 27 
     name rwrist
     direction -1 -4.49044e-011 -1.49032e-026   
     length 1.46948   
     axis 9.0955e-015 -90 -90   XYZ
    dof ry
    limits (-180.0 0.0)
  end
  begin
     id 28
     name rhand
     direction -1 -4.48826e-011 -2.97749e-026   
     length 0.405092   
     axis 1.90115e-014 -90 -90   XYZ
    dof rx rz
    limits (-90.0 90.0)
           (-45.0 45.0)
  end
  begin
     id 29
     name rfingers
     direction -1 -4.49209e-011 -5.96602e-026   
     length 0.326596   
     axis 3.80223e-014 -90 -90   XYZ
    dof rx
    limits (0.0 90.0)
  end
  begin
     id 30
     name rthumb
     direction -0.707107 -6.34776e-011 0.707107   
     length 0.468928   
     axis -90 -45 3.84942e-014   XYZ
    dof rx rz
    limits (-45.0 45.0)
           (-45.0 45.0)
  end
:hierarchy
  begin
    root lhipjoint rhipjoint lowerback
    lhipjoint lfemur
    lfemur ltibia
    ltibia lfoot
    lfoot ltoes
    rhipjoint rfemur
    rfemur rtibia
    rtibia rfoot
    rfoot rtoes
    lowerback upperback
    upperback thorax
    thorax lowerneck lclavicle rclavicle
    lowerneck upperneck
    upperneck head
    lclavicle lhumerus
    lhumerus lradius
    lradius lwrist
    lwrist lhand lthumb
    lhand lfingers
    rclavicle rhumerus
    rhumerus rradius
    rradius rwrist
    rwrist rhand rthumb
    rhand rfingers
  end

#!OML:ASF H:\Punching\Project 1\Capture day 1\Session 1\female.ASF
:FULLY-SPECIFIED
:DEGREES
697
root -2.9472 14.8344 -2.51936 26.7219 -37.6817 -14.1193
lowerback -1.98273 -1.88232 3.96462
upperback -6.6905 -2.57716 -0.472743
thorax -6.04262 -1.55296 -2.6149
lowerneck -0.17939 15.0604 21.272
upperneck 12.3951 23.2304 -24.5572
head 9.54022 10.9968 -9.09928
rclavicle 5.82936e-014 4.77083e-015
rhumerus -1.46704 30.4947 -71.2897
rradius 132.203
rwrist -10.6252
rhand -28.0845 7.06362
rfingers 7.12502
rthumb -1.4675 -22.9111
lclavicle 5.82936e-014 4.77083e-015
lhumerus -1.81982 1.27906 50.9564
lradius 141.764
lwrist -1.90158
lhand -30.1588 5.97359
lfingers 7.12502
lthumb -3.4708 35.9251
rfemur -18.2558 7.12521 20.2884
rtibia 29.0189
rfoot -26.4095 -14.6513
rtoes -10.2348
lfemur -42.3481 -34.0248 30.2882
ltibia 36.9993
lfoot -85.8828 -3.4643
ltoes 57.3476
698
root -2.96058 14.8408 -2.52986 26.5965 -37.6026 -13.9768
lowerback -1.91825 -1.97863 3.88363
upperback -6.72031 -2.70513 -0.466293
thorax -6.11662 -1.61405 -2.55451
lowerneck -0.167771 15.1202 21.2554
upperneck 12.0988 23.2893 -24.6891
head 9.47164 11.0276 -9.1234
rclavicle -3.18055e-014 -6.52014e-014
rhumerus -1.51996 30.563 -71.362
rradius 132.241
rwrist -10.9322
rhand -27.7957 6.9545
rfingers 7.12502
rthumb -1.18862 -23.0219
lclavicle -3.18055e-014 -6.52014e-014
lhumerus -1.70644 1.07729 51.3208
lradius 141.639
lwrist -1.78999
lhand -30.2572 6.01072
lfingers 7.12502
lthumb -3.56583 35.9606
rfemur -18.1384 7.26069 20.2797
rtibia 28.9335
rfoot -26.5036 -14.8502
rtoes -9.78414
lfemur -42.2953 -33.5199 30.0677
ltibia 37.0189
lfoot -84.7565 -2.75118
ltoes 57.2172
699
root -2.97236 14.8483 -2.53831 26.4102 -37.4613 -13.7789
lowerback -1.82073 -2.07519 3.78038
upperback -6.74385 -2.83247 -0.46268
thorax -6.2013 -1.67339 -2.48319
lowerneck -0.18478 15.1667 21.2249
upperneck 11.8369 23.3284 -24.8052
head 9.41087 11.0464 -9.14298
rclavicle 3.39425e-014 6.36111e-015
rhumerus -1.56613 30.6394 -71.4295
rradius 132.232
rwrist -11.0915
rhand -27.6503 6.94011
rfingers 7.12502
rthumb -1.04821 -23.0371
lclavicle 3.39425e-014 6.36111e-015
lhumerus -1.61681 0.862127 51.6817
lradius 141.516
lwrist -1.74041
lhand -30.3431 5.99885
lfingers 7.12502
lthumb -3.6488 35.9474
rfemur -17.9582 7.40558 20.2422
rtibia 28.8098
rfoot -26.5569 -15.14
rtoes -9.468
lfemur -42.1199 -32.3347 29.4703
ltibia 37.0391
lfoot -82.9641 -1.37692
ltoes 57.029
700
root -2.98245 14.8567 -2.54418 26.1788 -37.2567 -13.5418
lowerback -1.69571 -2.17381 3.66497
upperback -6.75902 -2.96144 -0.454615
thorax -6.29152 -1.73226 -2.39904
lowerneck -0.247966 15.2092 21.1775
upperneck 11.6127 23.36 -24.9079
head 9.36534 11.0572 -9.15428
rclavicle -7.82218e-014 1.59028e-015
rhumerus -1.59698 30.7524 -71.485
rradius 132.151
rwrist -11.005
rhand -27.7799 7.09886
rfingers 7.12502
rthumb -1.17338 -22.8777
lclavicle -7.82218e-014 1.59028e-015
lhumerus -1.56953 0.648506 52.0352
lradius 141.403
lwrist -1.78278
lhand -30.423 5.94234
lfingers 7.12502
lthumb -3.72598 35.8895
rfemur -17.7191 7.54623 20.1879
rtibia 28.6427
rfoot -26.5663 -15.4997
rtoes -9.27167
lfemur -41.859 -30.5095 28.5487
ltibia 37.0688
lfoot -80.56 0.607714
ltoes 56.7739
701
root -2.9906 14.8658 -2.54707 25.9203 -36.9868 -13.2819
lowerback -1.55633 -2.26844 3.56061
upperback -6.76337 -3.08431 -0.446272
thorax -6.37818 -1.7881 -2.32026
lowerneck -0.363389 15.2444 21.1198
upperneck 11.4223 23.3778 -24.9975
head 9.33399 11.0569 -9.15915
rclavicle 1.51076e-014 4.77083e-015
rhumerus -1.61289 30.8777 -71.5369
rradius 132.021
rwrist -10.7323
rhand -28.0897 7.35938
rfingers 7.12502
rthumb -1.47256 -22.6153
lclavicle 1.51076e-014 4.77083e-015
lhumerus -1.55295 0.438804 52.3701
lradius 141.305
lwrist -1.90673
lhand -30.4955 5.88157
lfingers 7.12502
lthumb -3.79597 35.8275
rfemur -17.4278 7.67791 20.1291
rtibia 28.4294
rfoot -26.5259 -15.9271
rtoes -9.20423
lfemur -41.5802 -28.163 27.4029
ltibia 37.1185
lfoot -77.6359 3.1016
ltoes 56.4496
702
root -2.99673 14.8752 -2.5462 25.6593 -36.6484 -13.0221
lowerback -1.41562 -2.35372 3.48955
upperback -6.76327 -3.19369 -0.432909
thorax -6.46139 -1.83857 -2.25504
lowerneck -0.524951 15.2656 21.0415
upperneck 11.2665 23.3722 -25.0668
head 9.31081 11.0413 -9.15612
rclavicle -6.70898e-015 -1.43125e-014
rhumerus -1.62566 31.0065 -71.5814
rradius 131.863
rwrist -10.3281
rhand -28.531 7.69224
rfingers 7.12502
rthumb -1.89874 -22.2791
lclavicle -6.70898e-015 -1.43125e-014
lhumerus -1.57725 0.231414 52.6904
lradius 141.227
lwrist -2.08436
lhand -30.5385 5.80845
lfingers 7.12502
lthumb -3.83747 35.7536
rfemur -17.0916 7.79028 20.083
rtibia 28.1677
rfoot -26.4701 -16.3854
rtoes -9.13722
lfemur -41.3466 -25.414 26.1302
ltibia 37.201
lfoot -74.2477 6.03731
ltoes 56.0267
703
root -3.00066 14.8842 -2.54173 25.4199 -36.2399 -12.7843
lowerback -1.2834 -2.42703 3.46937
upperback -6.76355 -3.28568 -0.40958
thorax -6.54147 -1.8828 -2.20859
lowerneck -0.723511 15.2702 20.9391
upperneck 11.1404 23.3401 -25.1147
head 9.29096 11.0098 -9.1457
rclavicle 4.0403e-014 1.59028e-014
rhumerus -1.63597 31.1287 -71.6221
rradius 131.693
rwrist -9.86284
rhand -29.0307 8.05015
rfingers 7.12502
rthumb -2.38135 -21.9163
lclavicle 4.0403e-014 1.59028e-014
lhumerus -1.64731 0.0306726 52.9957
lradius 141.174
lwrist -2.27656
lhand -30.5428 5.74846
lfingers 7.12502
lthumb -3.84162 35.6936
rfemur -16.7251 7.89281 20.0666
rtibia 27.8616
rfoot -26.3925 -16.9011
rtoes -9.09016
lfemur -41.207 -22.3228 24.7918
ltibia 37.3271
lfoot -70.3783 9.39417
ltoes 55.4601
704
root -3.00253 14.8923 -2.53341 25.2148 -35.7675 -12.5719
lowerback -1.17426 -2.48531 3.50078
upperback -6.77068 -3.35652 -0.376068
thorax -6.61696 -1.91919 -2.18187
lowerneck -0.949626 15.2559 20.8035
upperneck 11.0459 23.2783 -25.131
head 9.26963 10.9615 -9.12429
rclavicle -3.99557e-014 2.8625e-014
rhumerus -1.64892 31.2347 -71.6594
rradius 131.541
rwrist -9.43117
rhand -29.4796 8.35618
rfingers 7.12502
rthumb -2.81484 -21.605
lclavicle -3.99557e-014 2.8625e-014
lhumerus -1.76245 -0.165013 53.2816
lradius 141.147
lwrist -2.44181
lhand -30.5031 5.69619
lfingers 7.12502
lthumb -3.80326 35.642
rfemur -16.3418 7.99634 20.0781
rtibia 27.519
rfoot -26.3132 -17.4622
rtoes -9.03798
lfemur -41.203 -19.0001 23.4349
ltibia 37.5052
lfoot -66.0209 13.0944
ltoes 54.7136
705
root -3.00269 14.8992 -2.5213 25.054 -35.2421 -12.3914
lowerback -1.09718 -2.52403 3.5809
upperback -6.78923 -3.40047 -0.333288
thorax -6.68718 -1.94498 -2.175
lowerneck -1.19894 15.2204 20.6401
upperneck 10.9887 23.1847 -25.1112
head 9.24752 10.8961 -9.09196
rclavicle -1.69961e-014 7.95139e-015
rhumerus -1.66888 31.3146 -71.7014
rradius 131.426
rwrist -9.11221
rhand -29.8087 8.56313
rfingers 7.12502
rthumb -3.13275 -21.3936
lclavicle -1.69961e-014 7.95139e-015
lhumerus -1.92899 -0.35947 53.5518
lradius 141.144
lwrist -2.55694
lhand -30.4107 5.63049
lfingers 7.12502
lthumb -3.71409 35.5779
rfemur -15.9582 8.11595 20.1198
rtibia 27.1544
rfoot -26.2294 -18.0859
rtoes -8.99625
lfemur -41.3504 -15.5156 22.0773
ltibia 37.7383
lfoot -61.1138 17.0333
ltoes 53.7236
